<?xml version="1.0" encoding="UTF-8"?>
<svg width="200px" height="200px" viewBox="0 0 200 200" version="1.1" xmlns="http://www.w3.org/2000/svg">
  <circle cx="100" cy="100" r="90" fill="#0288d1" />
  <circle cx="100" cy="100" r="85" fill="#2e7d32" />
  <circle cx="100" cy="100" r="80" fill="white" />
  <path d="M100,20 C55.8,20 20,55.8 20,100 C20,144.2 55.8,180 100,180 C144.2,180 180,144.2 180,100 C180,55.8 144.2,20 100,20 Z M100,170 C61.4,170 30,138.6 30,100 C30,61.4 61.4,30 100,30 C138.6,30 170,61.4 170,100 C170,138.6 138.6,170 100,170 Z" fill="#0288d1" />
  <path d="M100,40 L110,65 L135,65 L115,80 L125,105 L100,90 L75,105 L85,80 L65,65 L90,65 Z" fill="#2e7d32" />
  <text x="100" y="145" text-anchor="middle" font-family="Arial" font-weight="bold" font-size="24" fill="#2e7d32">SPORTS</text>
</svg> 